FFmpeg version SVN-r25716, Copyright (c) 2000-2010 the FFmpeg developers  built on Nov 10 2010 12:23:18 with gcc 4.1.2 20080704 (Red Hat 4.1.2-48)  configuration: --enable-libmp3lame --enable-shared --disable-mmx --arch=x86_64  libavutil     50.33. 0 / 50.33. 0  libavcore      0.12. 1 /  0.12. 1  libavcodec    52.94. 4 / 52.94. 4  libavformat   52.84. 0 / 52.84. 0  libavdevice   52. 2. 2 / 52. 2. 2  libavfilter    1.59. 0 /  1.59. 0  libswscale     0.12. 0 /  0.12. 0Seems stream 0 codec frame rate differs from container frame rate: 1800.00 (1800/1) -> 15.00 (15/1)Input #0, mov,mp4,m4a,3gp,3g2,mj2, from '/RAID10/data/converted_video_files/25821.mov':  Duration: 00:00:05.80, start: 0.000000, bitrate: 39395 kb/s    Stream #0.0(eng): Video: qtrle, rgb24, 407x430, 39393 kb/s, 15 fps, 15 tbr, 1800 tbn, 1800 tbc[buffer @ 0xd1b7b50] w:407 h:430 pixfmt:rgb24[ffsink @ 0xd192820] auto-inserting filter 'auto-inserted scaler 0' between the filter 'src' and the filter 'out'[scale @ 0xd192b10] w:407 h:430 fmt:rgb24 -> w:407 h:430 fmt:yuv420p flags:0x4Output #0, flv, to '/RAID10/data/converted_video_files/25821.flv':  Metadata:    encoder         : Lavf52.84.0    Stream #0.0(eng): Video: flv, yuv420p, 407x430, q=2-31, 600 kb/s, 1k tbn, 24 tbcStream mapping:  Stream #0.0 -> #0.0Press [q] to stop encodingframe=   51 fps=  0 q=9.0 size=     331kB time=3.38 bitrate= 802.9kbits/s    frame=   87 fps=  0 q=8.6 Lsize=     473kB time=5.75 bitrate= 674.6kbits/s    video:472kB audio:0kB global headers:0kB muxing overhead 0.331506%